<svg xmlns="http://www.w3.org/2000/svg" xmlns:xlink="http://www.w3.org/1999/xlink" viewBox="0 0 100 100">
  <defs>
    <style>
      .a {
        filter: url(#b);
      }

      .b {
        fill: #fff;
      }

      .c {
        mask: url(#a);
      }

      .d {
        fill: url(#c);
      }

      .e {
        fill: url(#d);
      }

      .f {
        fill: #cc444b;
      }
    </style>
    <filter id="b" x="0" y="0" width="100" height="100" filterUnits="userSpaceOnUse" color-interpolation-filters="sRGB">
      <feColorMatrix values="-1 0 0 0 1 0 -1 0 0 1 0 0 -1 0 1 0 0 0 1 0" result="invert"/>
      <feFlood flood-color="#fff" result="bg"/>
      <feBlend in="invert" in2="bg"/>
    </filter>
    <mask id="a" x="0" y="0" width="100" height="100" maskUnits="userSpaceOnUse">
      <g class="a">
        <circle class="b" cx="50" cy="50" r="6"/>
        <rect class="b" x="56" y="50" width="44" height="50"/>
        <path class="b" d="M97,18H65V52H97ZM77,37a1,1,0,0,1-1,1H70a1,1,0,0,1-1-1V31a1,1,0,0,1,1-1h6a1,1,0,0,1,1,1Zm16,0a1,1,0,0,1-1,1H86a1,1,0,0,1-1-1V31a1,1,0,0,1,1-1h6a1,1,0,0,1,1,1Z"/>
        <path class="b" d="M34,50A16,16,0,0,1,45.86,34.56a11.59,11.59,0,0,1,19.26-4.81A32.37,32.37,0,0,0,24.5,7a11.57,11.57,0,0,1,6.61,19.19,16.37,16.37,0,0,1,.55,4.11,16,16,0,0,1-30.2,7.37V38A32.35,32.35,0,0,0,50,66,16,16,0,0,1,34,50Z"/>
        <rect class="b" x="35.74" y="-6.01" width="10.4" height="75.6" transform="translate(-7.06 51.35) rotate(-60)"/>
      </g>
    </mask>
    <radialGradient id="c" cx="50" cy="50" r="50" gradientUnits="userSpaceOnUse">
      <stop offset="0" stop-color="#cc444b"/>
      <stop offset="0.14" stop-color="#d35762"/>
      <stop offset="0.55" stop-color="#e68da2"/>
      <stop offset="0.85" stop-color="#f2afcb"/>
      <stop offset="1" stop-color="#f7bcda"/>
    </radialGradient>
    <linearGradient id="d" data-name="New Gradient Swatch" y1="50" x2="100" y2="50" gradientUnits="userSpaceOnUse">
      <stop offset="0" stop-color="#da5552" stop-opacity="0"/>
      <stop offset="0.05" stop-color="#da5552" stop-opacity="0.09"/>
      <stop offset="0.18" stop-color="#da5552" stop-opacity="0.33"/>
      <stop offset="0.32" stop-color="#da5552" stop-opacity="0.54"/>
      <stop offset="0.46" stop-color="#da5552" stop-opacity="0.7"/>
      <stop offset="0.59" stop-color="#da5552" stop-opacity="0.83"/>
      <stop offset="0.73" stop-color="#da5552" stop-opacity="0.93"/>
      <stop offset="0.87" stop-color="#da5552" stop-opacity="0.98"/>
      <stop offset="1" stop-color="#da5552"/>
    </linearGradient>
  </defs>
  <title>isocutor</title>
  <g class="c">
    <g>
      <path class="d" d="M50,0a50,50,0,1,0,50,50A50,50,0,0,0,50,0Z"/>
      <path class="e" d="M100,50A50,50,0,1,1,50,0,50,50,0,0,1,100,50Z"/>
      <path class="f" d="M66,50A16,16,0,1,1,50,34,16,16,0,0,1,66,50Z"/>
    </g>
  </g>
</svg>
